<svg id="Layer_1" data-name="Layer 1" xmlns="http://www.w3.org/2000/svg" viewBox="0 0 286 71"><defs><style>.cls-1{stroke:#231f20;stroke-miterlimit:2.61;stroke-width:0.09px;}.cls-1,.cls-2,.cls-3,.cls-4,.cls-5{fill-rule:evenodd;}.cls-2{fill:#ffca05;}.cls-3{fill:#a5cd39;}.cls-4{fill:#007ac2;}.cls-5{fill:#ec1c24;}.cls-6{fill:#969696;}</style></defs><title>carsalesLtd</title><path class="cls-1" d="M151.24,28.93a6.49,6.49,0,1,1-7,6,6.51,6.51,0,0,1,7-6Z"/><path class="cls-2" d="M164.09,24.19c2.54,2.94,3.76,8.14,2.9,14C165.68,47,160.08,54,154.51,53.71a6.73,6.73,0,0,1-4.7-2.34c4.74-.9,9.83-5.18,12.89-11.4,2.82-5.75,3.19-11.72,1.39-15.78Z"/><path class="cls-3" d="M137,46.57c-2.46-3-3.56-8.23-2.55-14,1.52-8.78,7.3-15.63,12.86-15.24A6.72,6.72,0,0,1,152,19.76c-4.76.77-10,4.93-13.17,11.07-3,5.68-3.48,11.64-1.78,15.74Z"/><path class="cls-4" d="M155.91,44.88c-4.64,4.34-10.47,6-14.16,3.48s-4.17-8.62-1.7-14.53c0,.25-.06.49-.08.73a10.8,10.8,0,0,0,15.94,10.32Z"/><path class="cls-5" d="M159.75,22.45c3.7,2.54,4.12,8.54,1.68,14.41,0-.2,0-.41.07-.62a10.79,10.79,0,0,0-16-10.26c4.66-4.38,10.57-6.08,14.27-3.53Z"/><path class="cls-6" d="M189.8,39.84a9.19,9.19,0,0,1-8.9,6.36,9.47,9.47,0,0,1,0-18.94,9.32,9.32,0,0,1,8.93,6.5H185a4.4,4.4,0,0,0-4.13-2.59,5.17,5.17,0,0,0-5.15,5.56,5.33,5.33,0,0,0,5.34,5.57A4.57,4.57,0,0,0,185,39.84Z"/><path class="cls-6" d="M190.55,36.77A9.5,9.5,0,0,1,200,27.26a9.38,9.38,0,0,1,9.4,9.44,9.25,9.25,0,0,1-9.4,9.5A9.5,9.5,0,0,1,190.55,36.77Zm14.62,0a5.2,5.2,0,1,0-10.37,0,5.19,5.19,0,1,0,10.37,0Z"/><path class="cls-6" d="M210.8,27.87h3.9v1.51h.06c.35-.58,1.57-2.12,4.64-2.12a6,6,0,0,1,5.12,2.79,6.54,6.54,0,0,1,5.73-2.79A6.87,6.87,0,0,1,236.1,30a8.71,8.71,0,0,1,1.35,5.24V45.63h-4.26V35.77c0-1,0-4.6-3.36-4.6a3.46,3.46,0,0,0-2.94,1.66,7.34,7.34,0,0,0-.64,3.62v9.18H222V35.77c0-2.43-.93-4.6-3.55-4.6-3.39,0-3.39,3.71-3.39,5.6v8.86H210.8Z"/><path class="cls-6" d="M250.3,45.87H247V22.28h3.32Z"/><path class="cls-6" d="M257.15,45.87h-3.31V31.23h-2.4v-3h2.4V22.28h3.31v5.93h2.9v3h-2.9Z"/><path class="cls-6" d="M275.26,45.87V43.35h-.07a7.46,7.46,0,0,1-6.24,3,9,9,0,0,1-9.18-9.21c0-4.3,2.93-9.37,9.18-9.37a7.66,7.66,0,0,1,6,2.64H275V22.28h3.32V45.87Zm-6.12-15.11a6.26,6.26,0,1,0,6.12,6.31A6,6,0,0,0,269.14,30.76Z"/><path d="M21.07,33.75A5.39,5.39,0,0,0,16,30.37c-4.37,0-5.93,3.64-5.93,6.38,0,3.12,2,6.41,5.86,6.41A5.46,5.46,0,0,0,21,39.84h3.78a9.27,9.27,0,0,1-8.89,6.41c-5.92,0-9.24-4.85-9.24-9.5a9.28,9.28,0,0,1,18.13-3Z"/><path d="M41.7,45.79V43h-.07a6.9,6.9,0,0,1-6.12,3.25,9.26,9.26,0,0,1-9.57-9.41,9.35,9.35,0,0,1,9.57-9.57,7.16,7.16,0,0,1,6.12,3h.07V27.76h3.38v18ZM35.51,30.37a6.4,6.4,0,1,0,6.25,6.44A6.16,6.16,0,0,0,35.51,30.37Z"/><path d="M86.56,45.79V43h-.07a6.9,6.9,0,0,1-6.12,3.25,9.25,9.25,0,0,1-9.57-9.41,9.35,9.35,0,0,1,9.57-9.57,7.16,7.16,0,0,1,6.12,3h.07V27.76h3.38v18ZM80.37,30.37a6.4,6.4,0,1,0,6.25,6.44A6.16,6.16,0,0,0,80.37,30.37Z"/><path d="M95.5,45.79H92.11V21.71H95.5Z"/><path d="M100.44,38.24a6.1,6.1,0,0,0,5.92,4.92,5.76,5.76,0,0,0,5.14-3h3.39a9.19,9.19,0,0,1-8.66,6.12,9.41,9.41,0,0,1-9.18-9.5,9.21,9.21,0,1,1,18.42-.23c0,.58-.06,1.5-.09,1.72Zm11.65-2.6a5.85,5.85,0,0,0-11.65,0Z"/><path d="M120.09,32.38c0-.74.65-2.2,2.84-2.2a3,3,0,0,1,3,2.47h3.29A6,6,0,0,0,123,27.27c-4.82,0-5.93,3.4-6,5-.27,5.85,9.44,4.82,9.27,8.63,0,.71-.71,2.4-3.51,2.4A3.55,3.55,0,0,1,119,40.13h-3.25a6.6,6.6,0,0,0,7,6.12c5.49,0,6.56-3.89,6.62-5.34C129.65,34.8,120,35.17,120.09,32.38Z"/><path d="M60.51,32.38c0-.74.64-2.2,2.84-2.2a3,3,0,0,1,3,2.47h3.29a6,6,0,0,0-6.27-5.38c-4.82,0-5.93,3.4-6,5-.27,5.85,9.44,4.82,9.27,8.63,0,.71-.71,2.4-3.51,2.4a3.57,3.57,0,0,1-3.68-3.16H56.21a6.6,6.6,0,0,0,7,6.12c5.49,0,6.56-3.89,6.62-5.34C70.07,34.8,60.39,35.17,60.51,32.38Z"/><path d="M55.43,27.27a5.89,5.89,0,0,0-5.17,2.45h0v-2H47.07v18h3.38V36c0-1.33,0-5.41,4.46-5.41a3.14,3.14,0,0,1,1.12.22l1.5-3.07A6,6,0,0,0,55.43,27.27Z"/></svg>